<svg width="75" height="23" viewBox="0 0 75 23" fill="none" xmlns="http://www.w3.org/2000/svg">
<path fill-rule="evenodd" clip-rule="evenodd" d="M46.724 17.378C42.4318 20.5367 36.2071 22.2154 30.8491 22.2154C23.3387 22.2154 16.5747 19.447 11.4575 14.84C11.0562 14.4784 11.4141 13.9839 11.8973 14.264C17.419 17.4676 24.2472 19.3958 31.3002 19.3958C36.0578 19.3958 41.2874 18.4117 46.0996 16.3762C46.8251 16.069 47.4334 16.8531 46.724 17.3764V17.378Z" fill="#061B23"/>
<path fill-rule="evenodd" clip-rule="evenodd" d="M48.5103 15.3458C47.9614 14.6449 44.8811 15.0146 43.4975 15.1794C43.0786 15.229 43.0144 14.8642 43.3916 14.6001C45.849 12.8799 49.8747 13.376 50.3434 13.9521C50.8153 14.5329 50.2198 18.5574 47.9164 20.4777C47.5617 20.7721 47.2246 20.6153 47.3819 20.2248C47.9004 18.9351 49.0609 16.0467 48.5103 15.3458Z" fill="#061B23"/>
<path fill-rule="evenodd" clip-rule="evenodd" d="M43.5956 2.4462V0.773995C43.5972 0.519564 43.7898 0.349943 44.0209 0.351543H51.5378C51.7786 0.351543 51.9712 0.524364 51.9712 0.772395V2.20617C51.9696 2.4462 51.7657 2.75984 51.4062 3.2591L47.5121 8.80059C48.9567 8.76698 50.4864 8.98301 51.7994 9.7191C52.0948 9.88552 52.175 10.1304 52.1975 10.372V12.1562C52.1975 12.401 51.9278 12.6859 51.6437 12.5386C49.3307 11.3305 46.2601 11.1993 43.7015 12.553C43.4399 12.6923 43.167 12.4106 43.167 12.1658V10.4696C43.167 10.1976 43.1718 9.7335 43.4463 9.32065L47.9567 2.86865H44.029C43.7882 2.86865 43.5956 2.69743 43.594 2.4478L43.5956 2.4462Z" fill="#061B23"/>
<path fill-rule="evenodd" clip-rule="evenodd" d="M16.1781 12.8883H13.8908C13.6725 12.8739 13.4991 12.7107 13.4814 12.5027V0.803617C13.4831 0.569989 13.6805 0.382766 13.9245 0.382766H16.0545C16.2776 0.393967 16.4558 0.561988 16.4702 0.774814V2.3014H16.5136C17.0689 0.82442 18.1139 0.134735 19.5232 0.134735C20.9325 0.134735 21.8506 0.82442 22.4895 2.3014C23.0449 0.82442 24.3033 0.134735 25.6484 0.134735C26.6083 0.134735 27.6548 0.528383 28.2953 1.41489C29.0208 2.40061 28.8715 3.82799 28.8715 5.08255V12.4659C28.8699 12.6995 28.6725 12.8867 28.4285 12.8867H26.1444C25.9148 12.8723 25.7335 12.6915 25.7335 12.4659V6.26509C25.7335 5.77383 25.7752 4.54168 25.6677 4.07442C25.4975 3.28552 24.9855 3.0647 24.3242 3.0647C23.7688 3.0647 23.1925 3.43434 22.9582 4.02481C22.7238 4.61529 22.7447 5.60101 22.7447 6.26509V12.4675C22.7447 12.7011 22.5473 12.8883 22.3033 12.8883H20.0192C19.7896 12.8739 19.6083 12.6931 19.6083 12.4675V6.26509C19.6067 4.96093 19.8201 3.04069 18.1973 3.04069C16.5745 3.04069 16.6179 4.91132 16.6179 6.26509V12.4675C16.6179 12.7011 16.4188 12.8883 16.1765 12.8883H16.1781Z" fill="#061B23"/>
<path fill-rule="evenodd" clip-rule="evenodd" d="M58.4603 2.52383C56.7749 2.52383 56.6673 4.81211 56.6673 6.24109C56.6673 7.67006 56.6465 10.7216 58.4394 10.7216C60.2323 10.7216 60.2965 8.25894 60.2965 6.75795C60.2965 5.77383 60.2532 4.59128 59.9546 3.65517C59.6994 2.84227 59.1858 2.52223 58.4603 2.52223V2.52383ZM58.4394 0.134735C61.8327 0.134735 63.6689 3.04069 63.6689 6.73395C63.6689 10.4272 61.6416 13.1347 58.4394 13.1347C55.2371 13.1347 53.2949 10.2288 53.2949 6.61073C53.2949 2.99269 55.1312 0.134735 58.4394 0.134735Z" fill="#061B23"/>
<path fill-rule="evenodd" clip-rule="evenodd" d="M68.0697 12.888H65.7921C65.5625 12.8736 65.3811 12.6927 65.3811 12.4671L65.3779 0.76326C65.3972 0.548833 65.5866 0.380813 65.8177 0.380813H67.9381C68.1372 0.390414 68.3025 0.52643 68.3442 0.707253V2.49627H68.3876C69.028 0.896076 69.9237 0.132782 71.5031 0.132782C72.5272 0.132782 73.5304 0.502428 74.1709 1.51215C74.768 2.44827 74.768 4.02286 74.768 5.1558V12.5183C74.7423 12.7247 74.5561 12.8864 74.3298 12.8864H72.0377C71.8258 12.8736 71.6556 12.7183 71.6299 12.5183V6.16713C71.6299 4.88697 71.7792 3.01474 70.1998 3.01474C69.6444 3.01474 69.1323 3.38438 68.8755 3.95085C68.5545 4.66454 68.5128 5.37823 68.5128 6.16713V12.4671C68.5096 12.7007 68.3121 12.888 68.0681 12.888H68.0697Z" fill="#061B23"/>
<path fill-rule="evenodd" clip-rule="evenodd" d="M39.9086 12.8582C39.7577 12.9943 39.5394 13.0023 39.3693 12.911C38.61 12.2822 38.4736 11.9909 38.0579 11.3925C36.8026 12.6678 35.9134 13.0503 34.2874 13.0503C32.3628 13.0503 30.8652 11.8661 30.8652 9.49782C30.8652 7.64799 31.8701 6.38864 33.3034 5.77256C34.5442 5.2301 36.2778 5.13088 37.6036 4.98206V4.68603C37.6036 4.14356 37.6469 3.50188 37.3259 3.03302C37.0466 2.61377 36.5137 2.44095 36.0418 2.44095C35.1702 2.44095 34.3949 2.88581 34.2039 3.80912C34.1638 4.01395 34.0145 4.21877 33.8075 4.22837L31.5908 3.98834C31.403 3.94674 31.1959 3.79632 31.2489 3.51148C31.7593 0.831154 34.1863 0.0214539 36.3628 0.0214539C37.4752 0.0214539 38.9294 0.317491 39.8075 1.15599C40.9198 2.19292 40.8123 3.57389 40.8123 5.07968V8.63051C40.8123 9.69945 41.2569 10.1683 41.6758 10.7428C41.8219 10.9508 41.854 11.1972 41.6678 11.3492C41.2007 11.7397 40.3709 12.4582 39.915 12.863L39.9086 12.8582ZM37.6036 7.30075C37.6036 8.18886 37.6245 8.92975 37.175 9.71865C36.8123 10.3603 36.2328 10.7556 35.5924 10.7556C34.716 10.7556 34.2023 10.0883 34.2023 9.10257C34.2023 7.16153 35.9487 6.80789 37.6036 6.80789V7.30075Z" fill="#061B23"/>
<path fill-rule="evenodd" clip-rule="evenodd" d="M9.93265 12.8582C9.78176 12.9943 9.56346 13.0023 9.39172 12.911C8.63088 12.2822 8.49605 11.9909 8.08032 11.3925C6.8251 12.6678 5.93585 13.0503 4.30985 13.0503C2.38529 13.0503 0.887695 11.8661 0.887695 9.49782C0.887695 7.64799 1.89251 6.38864 3.3259 5.77256C4.56667 5.2301 6.29861 5.13088 7.62446 4.98206V4.68603C7.62446 4.14356 7.6678 3.50188 7.34677 3.03302C7.06908 2.61377 6.53296 2.44095 6.06266 2.44095C5.19107 2.44095 4.41418 2.88581 4.22478 3.80912C4.18465 4.01395 4.03537 4.21877 3.8267 4.22837L1.61001 3.98834C1.42221 3.94674 1.21514 3.79632 1.26811 3.51148C1.77694 0.831154 4.20551 0.0214539 6.38208 0.0214539C7.49444 0.0214539 8.9487 0.317491 9.82671 1.15599C10.9391 2.19292 10.8315 3.57389 10.8315 5.07968V8.63051C10.8315 9.69945 11.2761 10.1683 11.6935 10.7428C11.8395 10.9508 11.8733 11.1972 11.6871 11.3492C11.22 11.7397 10.3901 12.4582 9.93265 12.863L9.92783 12.8582H9.93265ZM7.62767 7.30075C7.62767 8.18886 7.64854 8.92975 7.2007 9.71865C6.83794 10.3603 6.26009 10.7556 5.61804 10.7556C4.74163 10.7556 4.22799 10.0883 4.22799 9.10257C4.22799 7.16153 5.97598 6.80789 7.62927 6.80789V7.30075H7.62767Z" fill="#061B23"/>
</svg>
