<svg xmlns="http://www.w3.org/2000/svg" width="167.79" height="45.893" viewBox="0 0 44.394 12.143"><path d="M9.484 141.123a7.5 7.5 0 0 0-1.05-.349 7 7 0 0 0-1.62-.188q-1.971 0-3.135.99-1.166.99-1.166 2.658 0 1.677 1.188 2.669 1.189.993 3.17.994.779-.001 1.586-.164c.341-.07.693-.145 1.033-.273a.317.317 0 0 1 .433.306v1.828c0 .165-.104.3-.259.33q-.622.124-1.248.196-.944.112-1.904.112-3.582-.002-5.58-1.584-2-1.582-2-4.414 0-2.705 1.97-4.292 1.972-1.589 5.35-1.588 1.128 0 2.141.156c.446.067.866.172 1.27.271.153.038.26.169.26.33v1.709c0 .246-.16.422-.44.303m33.14 0a7.4 7.4 0 0 0-1.05-.349 7 7 0 0 0-1.619-.188q-1.97 0-3.136.99t-1.165 2.658q-.001 1.677 1.186 2.669 1.19.993 3.172.994c.517 0 1.048-.055 1.584-.164a6.6 6.6 0 0 0 1.035-.273.317.317 0 0 1 .432.306v1.828c0 .165-.103.3-.26.33a16 16 0 0 1-3.152.308q-3.58 0-5.58-1.584-1.999-1.582-2-4.414 0-2.705 1.972-4.292 1.971-1.589 5.35-1.588 1.125 0 2.141.156c.445.067.864.172 1.269.271.153.038.26.169.26.33v1.709c0 .246-.16.422-.439.303m-28.431-2.683c.243 0 .443.18.443.402l-.004 10.65c0 .42-.252.444-.457.444h-2.576c-.248 0-.503-.142-.503-.395l.001-10.697c0-.22.152-.404.434-.404zm8.428 11.52c-.695 0-1.043-.28-1.225-.869l-2.047-6.65c-.034-.109-.191-.085-.19.012l.036 7.061c0 .257-.129.44-.412.44h-2.444c-.333 0-.462-.098-.462-.435l-.001-10.605c0-.224.147-.475.555-.475h3.444c.809 0 1.395.186 1.654 1.024l1.86 5.983c.048.153.223.153.27 0l1.86-5.983c.26-.838.846-1.024 1.656-1.024h3.444c.407 0 .555.25.555.475l-.001 10.605c0 .337-.13.435-.463.435h-2.443c-.283 0-.413-.183-.413-.44l.037-7.06c0-.098-.156-.122-.19-.013l-2.048 6.65c-.182.589-.53.869-1.226.869z" style="fill:#fff;fill-opacity:1;fill-rule:nonzero;stroke:none;stroke-width:.35277778" transform="translate(1.2 -138.222)"/></svg>