<svg width="87" height="24" viewBox="0 0 87 24" fill="none" xmlns="http://www.w3.org/2000/svg">
<path fill-rule="evenodd" clip-rule="evenodd" d="M45.1689 7.53836L48.3806 7.41946L45.6857 16.2702H51.4482L54.1414 7.41946L57.2802 7.53836L58.5589 3.33591H46.4476L45.1689 7.53836Z" fill="#061B23"/>
<path fill-rule="evenodd" clip-rule="evenodd" d="M33.2386 9.84018C32.4336 13.9914 28.0194 16.4782 23.1828 16.4782C18.3463 16.4782 14.8978 13.9914 15.7027 9.84018C16.4912 5.77479 20.9567 3.13278 25.7717 3.13278C30.5867 3.13278 34.027 5.77479 33.2386 9.84018ZM21.4934 9.90953C21.2068 11.3841 22.2304 12.3963 23.9762 12.3963C25.722 12.3963 27.1366 11.3841 27.4231 9.90953C27.6898 8.53734 26.7771 7.38806 24.9485 7.38806C23.1199 7.38806 21.76 8.53734 21.495 9.90953H21.4934Z" fill="#061B23"/>
<path fill-rule="evenodd" clip-rule="evenodd" d="M31.4502 15.2943C33.095 16.0324 35.3211 16.4782 37.3187 16.4782C40.7457 16.4782 44.4907 14.9508 45.0903 11.8646C45.516 9.66845 43.9573 8.60505 41.6036 8.15921L40.3465 7.91977C39.9225 7.83391 39.2201 7.76455 39.3129 7.28569C39.4156 6.75398 40.1825 6.59877 40.686 6.59877C41.9266 6.59877 42.9569 7.02809 43.8397 7.57631L46.0377 4.26554C44.6315 3.4944 43.0414 3.13278 41.2326 3.13278C37.7841 3.13278 34.0242 4.84843 33.4279 7.91812C33.0353 9.94256 34.7182 11.0225 36.9046 11.3494L38.0276 11.5212C38.5361 11.607 39.2831 11.6582 39.1705 12.2411C39.0578 12.824 38.117 13.0122 37.5489 13.0122C36.2238 13.0122 35.0876 12.4805 34.1832 11.8283L33.9248 11.64L31.4502 15.2943Z" fill="#061B23"/>
<path fill-rule="evenodd" clip-rule="evenodd" d="M69.7746 3.66448C68.6218 3.32102 67.3132 3.13278 66.0097 3.13278C61.3636 3.13278 57.1399 6.15127 56.4078 9.92604C55.6923 13.615 58.6687 16.4782 63.1889 16.4782C64.2192 16.4782 66.394 16.323 67.3894 15.963L68.4959 11.1265C67.4275 11.8646 66.2863 12.327 64.9612 12.327C63.2369 12.327 61.9566 11.2289 62.2332 9.8055C62.5065 8.39863 64.1314 7.28403 65.8556 7.28403C67.1592 7.28403 68.1994 7.88344 68.9878 8.58688L69.7746 3.66448Z" fill="#061B23"/>
<path fill-rule="evenodd" clip-rule="evenodd" d="M79.0002 3.13278C74.1852 3.13278 69.7197 5.77479 68.9313 9.84018C68.1263 13.9914 71.5748 16.4782 76.4113 16.4782C81.2479 16.4782 85.6621 13.9914 86.4671 9.84018C87.2555 5.77479 83.8152 3.13278 79.0002 3.13278ZM78.1754 7.38641C80.004 7.38641 80.9166 8.53569 80.65 9.90788C80.3634 11.3825 78.9472 12.3947 77.2031 12.3947C75.4589 12.3947 74.4353 11.3825 74.7202 9.90788C74.9869 8.53569 76.3451 7.38641 78.1737 7.38641H78.1754Z" fill="#061B23"/>
<path fill-rule="evenodd" clip-rule="evenodd" d="M17.1903 0.761441C15.7526 0.346976 14.1194 0.11911 12.4945 0.11911C6.69895 0.11911 1.43174 3.76838 0.51909 8.3308C-0.373685 12.7892 3.3382 16.2519 8.97644 16.2519C10.2618 16.2519 12.9732 16.0653 14.2155 15.6294L15.5952 9.78225C14.2635 10.6739 12.8391 11.2337 11.1877 11.2337C9.03772 11.2337 7.44099 9.9061 7.78552 8.18549C8.12673 6.4847 10.1525 5.13727 12.3024 5.13727C13.9289 5.13727 15.2259 5.86383 16.2097 6.71257L17.1919 0.761441H17.1903Z" fill="#061B23"/>
<path fill-rule="evenodd" clip-rule="evenodd" d="M29.7248 17.9883L29.9451 21.4575H30.0014C30.1157 21.1025 30.2416 20.7326 30.4188 20.3859L31.618 17.9883H33.5675L33.8624 21.4575H33.9187C34.0214 21.119 34.134 20.764 34.2897 20.4321L35.4608 17.9883H38.106L34.5282 23.8023H32.3104L32.1149 20.6418H32.0321C31.9476 20.9423 31.8731 21.2363 31.734 21.5203L30.5927 23.8023H28.4295L27.0879 17.9883H29.7248Z" fill="#061B23"/>
<path fill-rule="evenodd" clip-rule="evenodd" d="M37.9216 17.9883H40.373L39.9986 19.9466H41.5589L41.9316 17.9883H44.383L43.2749 23.8023H40.8235L41.2094 21.7812H39.6492L39.2649 23.8023H36.8135L37.9216 17.9883Z" fill="#061B23"/>
<path fill-rule="evenodd" clip-rule="evenodd" d="M51.5568 20.9116C51.2007 22.7776 49.2528 23.8955 47.1178 23.8955C44.9827 23.8955 43.4605 22.7776 43.815 20.9116C44.1628 19.0837 46.1356 17.8965 48.2607 17.8965C50.3858 17.8965 51.9046 19.0837 51.5568 20.9116ZM46.3708 20.943C46.2449 21.6068 46.6954 22.0609 47.4673 22.0609C48.2391 22.0609 48.8636 21.6068 48.9895 20.943C49.1071 20.3255 48.7046 19.8103 47.8963 19.8103C47.088 19.8103 46.4884 20.3271 46.3708 20.943Z" fill="#061B23"/>
<path fill-rule="evenodd" clip-rule="evenodd" d="M52.113 17.9883H54.6572L53.9052 21.9364H56.0402L55.6841 23.8023H51.0049L52.113 17.9883Z" fill="#061B23"/>
<path fill-rule="evenodd" clip-rule="evenodd" d="M62.0571 21.7224L62.1714 21.8066C62.5705 22.0989 63.0724 22.3383 63.6571 22.3383C63.9072 22.3383 64.323 22.2541 64.3727 21.9916C64.4223 21.729 64.0927 21.7059 63.8675 21.6679L63.3722 21.5903C62.4066 21.4434 61.6645 20.9579 61.8368 20.048C62.1001 18.6676 63.7598 17.8965 65.282 17.8965C66.0804 17.8965 66.7826 18.0583 67.4038 18.405L66.4332 19.8928C66.0439 19.6468 65.5884 19.4536 65.0418 19.4536C64.8182 19.4536 64.4803 19.5229 64.4356 19.7624C64.3942 19.9787 64.7039 20.0084 64.8911 20.048L65.446 20.1554C66.4845 20.3552 67.1736 20.834 66.9847 21.8215C66.7197 23.2085 65.0667 23.8955 63.5544 23.8955C62.6732 23.8955 61.6894 23.6957 60.9639 23.3638L62.0571 21.7208V21.7224Z" fill="#061B23"/>
<path fill-rule="evenodd" clip-rule="evenodd" d="M70.7958 21.697L70.6947 20.6715C70.6682 20.4255 70.6699 20.1696 70.6699 19.9235H70.5771L69.7754 21.697H70.7958ZM68.5812 23.8023H65.8896L69.4293 17.9883H72.2418L73.6314 23.8023H70.9399L70.8454 23.0774H68.9241L68.5812 23.8023Z" fill="#061B23"/>
<path fill-rule="evenodd" clip-rule="evenodd" d="M74.527 17.9883H77.0696L76.3176 21.9364H78.4526L78.0965 23.8023H73.4189L74.527 17.9883Z" fill="#061B23"/>
<path fill-rule="evenodd" clip-rule="evenodd" d="M79.6765 17.9883H84.3838L84.0807 19.5768H81.9357L81.8314 20.1316H83.7892L83.501 21.6425H81.5432L81.4339 22.2138H83.6517L83.3503 23.8023H78.5684L79.6765 17.9883Z" fill="#061B23"/>
<path fill-rule="evenodd" clip-rule="evenodd" d="M0.919922 23.812H27.8854L27.8837 23.8037H27.8622L27.5193 22.3242H0.919922V23.812Z" fill="#061B23" stroke="#0060A9" stroke-width="0.0154898" stroke-miterlimit="2.61"/>
<path fill-rule="evenodd" clip-rule="evenodd" d="M0.919922 21.6987H27.3752L27.0324 20.2109H0.919922V21.6987Z" fill="#061B23" stroke="#0060A9" stroke-width="0.0154898" stroke-miterlimit="2.61"/>
<path fill-rule="evenodd" clip-rule="evenodd" d="M0.919922 19.5772H26.8767L26.7607 19.0356L26.5222 18.0019H0.919922V19.5772Z" fill="#061B23" stroke="#0060A9" stroke-width="0.0154898" stroke-miterlimit="2.61"/>
<path fill-rule="evenodd" clip-rule="evenodd" d="M57.2653 17.9883H61.971L61.6696 19.5768H59.5246L59.4186 20.1316H61.378L61.0898 21.6425H59.1304L59.0227 22.2138H61.2406L60.9375 23.8023H56.1572L57.2653 17.9883Z" fill="#061B23"/>
<path fill-rule="evenodd" clip-rule="evenodd" d="M84.2366 16.1289H83.9716L84.1936 15.082H83.8076L83.8557 14.8574H84.8925L84.8462 15.082H84.4602L84.2366 16.1289Z" fill="#061B23"/>
<path fill-rule="evenodd" clip-rule="evenodd" d="M86.0049 16.1289H85.7548L85.9817 15.0655H85.9784L85.5146 16.1289H85.2529L85.2463 15.0655H85.243L85.016 16.1289H84.7676L85.0392 14.8574H85.4285L85.445 15.8597H85.4483L85.8889 14.8574H86.2749L86.0049 16.1289Z" fill="#061B23"/>
</svg>
