<svg width="78" height="33" viewBox="0 0 78 33" fill="none" xmlns="http://www.w3.org/2000/svg">
<path d="M39.0986 3.97789C39.6178 4.00217 40.1137 4.20049 40.5065 4.54091C41.0418 5.04763 41.1821 5.89257 40.9288 6.5686C39.9439 8.59589 37.6017 9.95 36.0011 10.398C35.0436 10.6232 33.8331 10.6232 32.96 10.2854C32.5373 10.5387 32.1807 11.3575 31.6646 11.0173C30.9176 10.4339 31.5643 9.5208 31.133 8.87291C31.0441 8.7395 30.8201 8.72971 30.7075 8.51144C30.1159 7.21608 30.8483 5.97702 31.6646 4.99174C33.0257 3.47321 36.9305 1.78129 39.0986 3.97789ZM34.565 4.99133C33.8045 5.13208 32.9457 5.46296 32.4814 6.00518C32.0167 6.54698 31.7213 7.07532 32.0029 7.63835C32.9886 6.90642 33.4671 5.89257 34.5654 5.27325C34.565 5.16024 34.7339 5.07578 34.565 4.99133ZM39.1553 5.27325C37.212 5.10393 35.7478 6.56861 34.368 7.97616C34.2835 8.20137 33.7768 8.45473 34.1709 8.70809C36.0297 8.87699 37.8036 8.34253 39.1553 7.10307C39.5498 6.7371 39.8305 6.25853 39.6342 5.75141C39.5498 5.55476 39.3511 5.3577 39.1553 5.27325ZM55.9933 13.6643C56.8945 15.8609 57.6546 19.3239 55.9933 21.436C55.5429 21.9428 54.7546 22.4099 54.2479 22.0272C52.3891 20.5352 51.6013 18.3949 50.4467 16.4798C50.2778 16.3954 50.2778 16.621 50.1933 16.7054C49.7711 18.6483 50.5593 21.1827 49.2362 22.7028C48.7295 22.7873 48.2554 22.5266 48.0816 22.0272C47.4337 20.0281 48.1089 17.9441 48.2778 15.945C48.6724 14.9311 48.8413 13.7488 49.7144 12.9883C51.1223 13.5513 51.798 15.1286 52.6139 16.2832C53.2059 17.1559 53.6841 18.1416 54.3597 18.9298C54.9509 18.6764 54.66 17.9037 54.6416 17.4374C54.4156 15.6071 53.9089 13.9177 53.4299 12.1719C53.4026 11.7215 53.1492 10.961 53.627 10.6795C54.8958 11.2429 55.4298 12.566 55.9933 13.6643ZM47.4896 12.9883C47.4896 13.4109 47.1518 13.9389 46.8695 14.0021C44.1666 14.4244 41.1536 14.171 38.6196 15.0156C38.5351 15.3252 38.9011 15.3815 39.0982 15.466C41.2658 15.8038 43.5472 15.8882 45.6594 16.4235C46.7761 16.7071 47.1804 18.0289 47.2648 19.1268C47.3166 19.9926 46.9837 21.0415 46.1384 21.6331C44.0552 22.9566 40.8733 22.8999 38.7607 21.6898C37.9533 21.2369 37.1839 20.5075 37.1276 19.6062C37.1325 18.8906 37.4376 18.3272 37.9444 18.0575C39.9721 17.2407 42.4779 17.6919 44.2241 18.7331C44.3359 19.2966 43.7263 19.266 43.4346 19.4655C41.4914 20.5919 40.0275 18.1991 38.2255 19.0709C37.9721 19.2398 37.7889 19.7111 38.0847 19.8596C40.3091 20.8453 42.7872 20.1411 44.9834 19.5218C45.2367 19.4373 45.5468 19.184 45.5745 18.9306C45.4901 18.0294 44.4766 17.8327 43.8288 17.5793C41.9141 17.1008 39.8023 17.1008 37.7465 16.9037C37.3524 16.8193 36.8501 16.5447 36.7331 16.2281C36.5078 15.5525 36.5078 14.6231 37.0146 14.0601C39.633 11.7508 43.6031 11.9483 46.9258 12.5676C47.1514 12.6505 47.4048 12.7349 47.4896 12.9883ZM35.1847 14.0584C35.4381 16.7613 35.5789 19.268 35.5226 22.1117C35.4663 22.4772 35.044 22.5621 34.7625 22.7028C34.3121 22.7873 33.7299 22.6914 33.5516 22.4495C32.9041 21.4071 33.1293 19.9999 33.073 18.7327C33.1575 16.734 33.1293 14.5655 33.6927 12.7068C33.8004 12.4367 34.115 12.2 34.3684 12.3685C35.044 12.7068 35.1566 13.3828 35.1847 14.0584ZM66.4691 13.6643C66.6046 13.892 66.7462 14.2436 66.4691 14.3962C65.2019 14.9593 63.4847 14.7059 62.0201 14.8748C61.6259 15.2126 61.3159 15.7756 61.4562 16.2828C61.5978 16.3672 61.7239 16.4957 61.8793 16.4794C62.7797 16.5361 64.1318 16.0571 64.7238 16.9017C64.8682 17.153 64.7042 18.0914 64.3015 18.1126C63.2028 18.2542 61.3962 17.9747 60.8655 18.2542C60.1898 18.7046 60.2457 19.5773 59.9924 20.2818C60.4713 20.5915 60.9728 20.2745 61.5407 20.197C62.5835 20.0281 63.7381 19.7184 64.7793 19.9436C64.9763 20.3096 65.2582 20.7041 65.0608 21.1545C63.2856 22.5625 60.996 24.0055 58.5567 22.9848C57.6411 22.5743 57.2331 21.1827 57.5432 20.0007C57.7399 19.1558 58.6126 18.3394 58.0781 17.4382C57.9936 17.0437 58.2193 16.7063 58.5571 16.6218C59.486 16.6218 59.2886 15.4672 59.7676 14.9319C59.2327 14.3407 57.8814 14.3689 58.0222 13.1861C58.6701 12.8483 59.4587 12.9609 60.1898 12.8483C61.8511 12.5101 63.7095 12.3131 65.4002 12.5101C65.7368 12.5778 66.1876 13.242 66.4691 13.6643ZM26.2584 7.24423C28.8569 9.36821 32.2281 12.9887 31.8058 17.1559C31.2987 20.4508 27.8071 22.9285 24.8504 23.7171C21.9782 24.5616 18.3741 24.4772 15.4451 23.8015C15.2481 24.3368 15.051 24.9839 14.4317 25.2095C14.0376 25.3503 13.5305 25.2658 13.2208 25.0124C12.3481 24.1957 13.0519 22.6188 11.7847 22.1125C9.30657 21.0705 6.6314 19.0146 5.3646 16.4806C5.1957 15.9739 5.39276 15.4672 5.70242 15.0731C7.64566 13.5244 10.0952 12.905 12.5452 12.4261C12.6859 12.4824 12.6296 12.2853 12.7422 12.229C12.883 10.5395 12.9393 8.82151 13.4742 7.30094C13.5961 7.08757 13.8964 7.01943 14.0939 7.16019C15.6426 8.34253 14.9103 10.5677 15.5863 12.1723C18.543 12.3131 21.4997 12.4538 23.8366 14.1155C24.6252 14.763 24.8174 15.9996 24.5685 16.7063C24.3201 17.4117 23.4988 17.9172 22.7383 17.9726C22.2312 17.9726 21.274 18.022 21.3303 17.6352C21.3866 17.2481 23.0529 16.6145 22.5412 16.0861C21.8056 15.3269 18.1252 14.8752 15.8441 14.5937C15.5626 14.5374 15.3044 14.6218 15.3044 14.9315C15.2481 17.0714 15.0792 19.4365 15.4451 21.4928C15.4733 21.6339 15.6422 21.8028 15.7834 21.8302C19.8098 22.478 24.0618 22.1117 27.2155 19.8029C28.6798 18.6209 29.1588 16.9584 28.905 15.1286C27.6378 10.032 22.316 6.96231 17.9514 4.99133C13.6998 3.13295 8.99691 2.17541 3.95664 2.42917C3.15413 2.48792 1.88244 2.76495 1.87306 3.04891C1.86367 3.33286 3.31366 3.24351 3.13985 3.78083C2.96646 4.31774 1.49281 3.99911 1.05627 3.86529C0.619722 3.73147 0.662152 3.1048 0.774757 2.71068C1.87306 0.767853 4.93785 0.610779 6.32215 0.542645C13.9809 0.34518 21.3871 3.26188 26.2584 7.24423ZM12.4607 14.7908C10.5175 14.8189 8.46204 15.016 6.65996 15.6916C6.294 15.8323 5.84317 16.2265 6.12468 16.7054C6.85661 17.6907 7.9035 18.4998 8.8843 19.0705C9.8651 19.6405 11.1654 20.3659 12.3481 20.5352C12.6296 18.7046 12.6296 16.9025 12.6015 15.016C12.4885 14.9597 12.6011 14.8471 12.4607 14.7908ZM70.6641 12.2282C70.5796 14.6777 68.2982 16.1987 68.2982 18.6483C68.3826 18.7327 68.4397 18.8453 68.5515 18.7898C70.3826 16.7903 72.1842 13.9462 74.8594 13.1017C75.5644 13.0454 76.2013 13.6578 76.4648 14.1155C77.3942 15.9739 77.1698 18.5928 75.8741 20.2823C74.5371 21.9407 72.2128 23.6049 69.567 23.323C68.4691 26.0263 67.7074 28.8704 67.2851 31.827C67.0599 32.4182 66.5255 31.8834 66.1876 31.7707C63.907 29.9687 65.7796 25.1981 65.9343 24.5894C66.0889 23.9823 66.6993 22.5503 67.1456 21.3512C66.0754 19.4369 66.7511 17.1273 67.6237 15.3534C68.2994 14.1706 69.2296 12.9879 70.3275 12.087C70.467 12.0874 70.5796 12.1156 70.6641 12.2282ZM75.1984 15.2693C74.8606 15.213 74.7195 15.6638 74.4384 15.7483C73.1434 17.2126 71.8476 18.6768 71.1998 20.4226C72.0732 20.5352 72.8048 19.9722 73.5657 19.6625C74.8606 18.8457 75.6774 17.4949 75.593 15.9458C75.5362 15.6916 75.311 15.4945 75.1984 15.2693Z" fill="#061B23"/>
</svg>
