<svg width="76" height="20" viewBox="0 0 76 20" fill="none" xmlns="http://www.w3.org/2000/svg">
<g clip-path="url(#clip0_4124_5426)">
<path d="M61.385 8.39038V14.3336C61.2335 16.6889 57.7696 16.6889 57.6182 14.3336V8.39038H54.3419V14.9773C54.3419 17.2019 56.6493 19.0054 59.4894 19.0054C62.3296 19.0054 64.637 17.2019 64.637 14.9773V8.39038H61.385ZM72.0392 1.32611V18.6226H75.3336V1.32611H72.0392ZM66.4457 18.6226H69.7401V1.32611H66.4457V18.6226ZM50.3106 9.62562C51.2232 8.80677 51.7493 7.64231 51.7643 6.41741C51.7622 5.31287 51.3364 4.25225 50.5747 3.45252C49.7995 2.58873 48.397 2.10414 46.517 2.10414H40.8817V18.6226H48.1609C50.9468 18.5797 53.1993 16.4729 53.1993 13.8919C53.1952 12.0134 52.5332 10.6707 50.3106 9.62562ZM47.5506 15.745H44.3983V4.95227H46.5945C47.581 4.99825 48.3562 5.81761 48.3459 6.80487C48.3459 7.77147 47.5609 8.55415 46.5945 8.55208H45.4514V11.5206H47.5506C50.3788 11.5206 50.3788 15.7589 47.5506 15.7589V15.745ZM11.829 6.99447C11.8171 5.69052 11.2869 4.44392 10.3536 3.5295C9.42341 2.6156 8.16508 2.10879 6.85973 2.12119H0.830078V18.6226H4.33583V4.95227H6.15124C7.38218 4.90991 8.41003 5.88425 8.43019 7.11588C8.37593 8.34802 7.33981 9.31151 6.10473 9.27225H5.29082V13.2218L8.779 18.6226H12.8873L8.04261 11.7308C10.2492 11.2178 11.815 9.25882 11.829 6.99447ZM17.9604 7.96313C14.9699 8.04373 12.5886 10.4894 12.5886 13.4781C12.5886 16.4693 14.9699 18.9145 17.9604 18.9961C20.259 18.9961 22.0501 17.9561 22.9767 16.3303L20.2978 15.0925C19.9102 15.8762 19.104 16.3639 18.2322 16.3438C17.039 16.3959 16.0324 15.4686 15.9879 14.2752V14.1621H23.2506C23.2728 13.942 23.2826 13.7229 23.2805 13.5003C23.3317 9.92009 20.9721 7.96313 17.9604 7.96313ZM15.976 12.2836C15.9254 11.1372 16.8421 10.181 17.9904 10.181C19.1366 10.181 20.0528 11.1372 20.0032 12.2836H15.976ZM36.3822 18.6226V1.32611H33.0836V9.51248C32.2072 8.62854 31.014 8.12897 29.7691 8.12225C27.0561 8.12225 24.8396 10.5364 24.8396 13.5122C24.8396 16.4869 27.0493 18.9248 29.7691 18.9248C31.0269 18.9145 32.2258 18.3978 33.0991 17.4958V18.6582L36.3822 18.6226ZM30.7039 16.0953C29.3717 16.0953 28.2854 14.9106 28.2854 13.4496C28.2854 11.9892 29.3717 10.788 30.7039 10.788C32.0382 10.788 33.126 11.9747 33.126 13.4378C33.126 14.9029 32.0424 16.0953 30.7039 16.0953Z" fill="#061B23"/>
</g>
<defs>
<clipPath id="clip0_4124_5426">
<rect width="75.2828" height="18.2264" fill="white" transform="translate(0.341797 0.830048)"/>
</clipPath>
</defs>
</svg>
