<svg width="142" height="19" viewBox="0 0 142 19" fill="none" xmlns="http://www.w3.org/2000/svg">
<g clip-path="url(#clip0_4124_5410)">
<path d="M33.8156 7.15417H21.8882L21.4463 7.48465V18.0952H24.7481V14.1163L25.0632 13.8339H33.816C36.026 13.8339 37.0621 13.2393 37.0621 11.7137V9.27739C37.0617 7.7492 36.026 7.15417 33.8156 7.15417ZM33.8156 11.0769C33.8156 11.7957 33.3401 11.945 32.304 11.945H25.0994L24.7477 11.6031V9.33013L25.0628 9.04176H32.304C33.3401 9.04176 33.8156 9.18935 33.8156 9.91155V11.0769Z" fill="#061B23"/>
<path d="M43.0833 9.16024L45.9245 13.3229L45.7671 13.7261H39.4838L37.8799 15.6992H47.2328L47.881 16.0939L49.333 18.0967H53.1116L44.8293 7.01746" fill="#061B23"/>
<path d="M80.6554 15.9417V12.9967L80.9952 12.7033H87.3164V10.828H77.2979V18.0964H92.0762V16.23H81.0101" fill="#061B23"/>
<path d="M92.2323 7.15417H77.2979V9.21615H92.2323V7.15417Z" fill="#061B23"/>
<path d="M60.6409 9.10659H72.6725C72.4871 7.5767 71.5378 7.15222 69.1296 7.15222H60.5129C57.7955 7.15222 56.9287 7.6826 56.9287 9.73904V15.5086C56.9287 17.5671 57.7955 18.0975 60.5129 18.0975H69.1296C71.5731 18.0975 72.5088 17.6386 72.5726 16.0517H60.6409L60.2871 15.7187V9.32946" fill="#061B23"/>
<path d="M13.4183 11.4169H4.66557L4.40782 11.1333V9.26098L4.66429 9.06278H16.4636L16.6248 8.6685C16.2229 7.63454 15.1821 7.15222 13.2495 7.15222H5.05304C2.33734 7.15222 1.46926 7.6826 1.46926 9.73904V10.9487C1.46926 13.0077 2.33734 13.5372 5.05304 13.5372H13.7862L14.0606 13.7779V15.7353L13.8368 16.0407H3.84724V16.0313H1.23065C1.23065 16.0313 0.931221 16.1814 0.942705 16.2516C1.166 17.6901 2.14595 18.0975 4.49204 18.0975H13.4183C16.1336 18.0975 17.0276 17.5671 17.0276 15.5086V14.0016C17.0276 11.9465 16.1336 11.4169 13.4183 11.4169Z" fill="#061B23"/>
<path d="M101.627 7.10925H96.7139L96.4473 7.61666L101.903 11.5939C102.937 10.9954 104.061 10.3889 105.285 9.7905" fill="#061B23"/>
<path d="M106.028 14.6018L110.824 18.0989H115.797L116.003 17.6357L108.842 12.3944C107.891 13.0924 106.951 13.8295 106.028 14.6018Z" fill="#061B23"/>
<path d="M100.896 18.0901H96.4508L96.0752 17.5018C99.0976 14.5837 112.615 2.07447 141.998 0.734268C141.998 0.734268 117.335 1.5662 100.896 18.0901Z" fill="#0B1B22"/>
</g>
<defs>
<clipPath id="clip0_4124_5410">
<rect width="141.056" height="17.3639" fill="white" transform="translate(0.943359 0.732513)"/>
</clipPath>
</defs>
</svg>
