<svg width="108" height="15" viewBox="0 0 108 15" fill="none" xmlns="http://www.w3.org/2000/svg">
<path d="M92.0951 6.0942V14.5519H94.8128V8.92078H104.704V14.5519H107.419V6.10887L92.0951 6.0942ZM94.5099 3.35832H104.96C106.411 3.07038 107.49 1.79199 107.795 0.55529H91.6751C91.9764 1.79238 93.0717 3.07038 94.5099 3.35832ZM83.8646 14.5573C85.2348 13.9776 85.9719 12.9748 86.2542 11.8014H74.0654L74.0731 0.562238L71.3408 0.569957V14.5573H83.8646ZM51.0223 3.3205H60.673C62.1279 2.89861 63.3496 1.79238 63.6474 0.566097H48.3171V8.832H60.8644V11.7327L51.0223 11.7404C49.48 12.1696 48.172 13.2033 47.5196 14.5685L48.3171 14.5539H63.5604V6.08378H51.0223V3.3205ZM27.198 3.34713H37.6442C39.0976 3.05803 40.1778 1.7808 40.4806 0.542938H24.3617C24.6626 1.7808 25.7586 3.05803 27.198 3.34713ZM27.198 8.87523H37.6442C39.0976 8.58922 40.1778 7.31083 40.4806 6.0722H24.3617C24.6626 7.31121 25.7586 8.58922 27.198 8.87523ZM27.198 14.5558H37.6442C39.0976 14.2675 40.1778 12.9895 40.4806 11.7524H24.3617C24.6626 12.9898 25.7586 14.2675 27.198 14.5558ZM0.0214844 0.576905C0.335516 1.79932 1.39595 3.04876 2.85087 3.3618H7.24809L7.4724 3.45019V14.5245H10.2182V3.45019L10.4677 3.3618H14.8688C16.3399 2.98353 17.3776 1.79932 17.6862 0.576905V0.549886H0.0214844V0.576905Z" fill="#061B23"/>
</svg>
